<?xml version="1.0" encoding="UTF-8" standalone="no"?>
<svg
   xmlns:dc="http://purl.org/dc/elements/1.1/"
   xmlns:cc="http://creativecommons.org/ns#"
   xmlns:rdf="http://www.w3.org/1999/02/22-rdf-syntax-ns#"
   xmlns:svg="http://www.w3.org/2000/svg"
   xmlns="http://www.w3.org/2000/svg"
   xmlns:sodipodi="http://sodipodi.sourceforge.net/DTD/sodipodi-0.dtd"
   xmlns:inkscape="http://www.inkscape.org/namespaces/inkscape"
   width="55.005398mm"
   height="24.998583mm"
   viewBox="0 0 55.005398 24.998583"
   version="1.1"
   id="svg8"
   inkscape:version="1.0.2 (394de47547, 2021-03-26)"
   sodipodi:docname="cloud.svg">
  <defs
     id="defs2">
    <inkscape:path-effect
       effect="bspline"
       id="path-effect849"
       is_visible="true"
       lpeversion="1"
       weight="33.333333"
       steps="2"
       helper_size="0"
       apply_no_weight="true"
       apply_with_weight="true"
       only_selected="false" />
  </defs>
  <sodipodi:namedview
     id="base"
     pagecolor="#ffffff"
     bordercolor="#666666"
     borderopacity="1.0"
     inkscape:pageopacity="0.0"
     inkscape:pageshadow="2"
     inkscape:zoom="0.49497475"
     inkscape:cx="52.57658"
     inkscape:cy="121.06616"
     inkscape:document-units="mm"
     inkscape:current-layer="layer1"
     inkscape:document-rotation="0"
     showgrid="false"
     inkscape:window-width="1360"
     inkscape:window-height="732"
     inkscape:window-x="0"
     inkscape:window-y="36"
     inkscape:window-maximized="0" />
  <metadata
     id="metadata5">
    <rdf:RDF>
      <cc:Work
         rdf:about="">
        <dc:format>image/svg+xml</dc:format>
        <dc:type
           rdf:resource="http://purl.org/dc/dcmitype/StillImage" />
        <dc:title></dc:title>
      </cc:Work>
    </rdf:RDF>
  </metadata>
  <g
     inkscape:label="Layer 1"
     inkscape:groupmode="layer"
     id="layer1"
     transform="translate(-134.74289,-127.19552)">
    <path
       style="fill:#4484f2;fill-opacity:1;stroke:#4484f2;stroke-width:0.264583px;stroke-linecap:butt;stroke-linejoin:miter;stroke-opacity:1"
       d="m 180.27947,127.72878 c -0.0991,0 -0.29755,0 -6.77128,-0.0713 -6.47374,-0.0713 -19.22209,-0.2138 -26.49784,-0.28423 -7.27575,-0.0704 -9.07909,-0.0688 -10.10149,0.0812 -1.0224,0.14997 -1.26351,0.44818 -1.45647,0.7603 -0.19297,0.31211 -0.33774,0.63801 -0.43614,1.02079 -0.0984,0.38279 -0.15047,0.82234 -0.13963,1.18289 0.0108,0.36055 0.0845,0.642 0.2226,0.93391 0.13812,0.29191 0.34059,0.59428 0.55726,0.77972 0.21666,0.18544 0.46189,0.25846 0.87271,0.30022 0.41083,0.0418 0.99451,0.0545 3.08032,0.0729 2.0858,0.0185 5.67356,0.0426 9.28745,0.0489 3.61389,0.006 7.25371,-0.005 9.22115,0.0202 1.96745,0.0257 2.2624,0.0887 2.51141,0.21766 0.24902,0.12898 0.45211,0.32374 0.60402,0.56507 0.15191,0.24133 0.25281,0.52917 0.31918,0.81646 0.0664,0.28729 0.0983,0.57404 0.0953,0.85361 -0.003,0.27956 -0.0409,0.552 -0.11323,0.76442 -0.0724,0.21242 -0.17922,0.36498 -0.31139,0.52786 -0.13216,0.16288 -0.28965,0.33612 -0.42659,0.46545 -0.13695,0.12933 -0.25344,0.21483 -0.44154,0.293 -0.1881,0.0782 -0.44796,0.14904 -0.73303,0.20417 -0.28507,0.0551 -0.5954,0.0945 -1.5065,0.10287 -0.9111,0.008 -2.42321,-0.0143 -3.93508,-0.037 -4.6143,-0.0394 -9.22834,-0.0789 -11.59213,-0.0578 -2.36379,0.021 -2.47684,0.10258 -2.67715,0.29841 -0.2003,0.19583 -0.48779,0.50588 -0.71556,0.7615 -0.22777,0.25562 -0.3958,0.45677 -0.45695,0.86594 -0.0611,0.40918 -0.0154,1.0261 0.11384,1.44874 0.12928,0.42265 0.34188,0.651 0.55093,0.83245 0.20905,0.18145 0.41448,0.31605 0.68198,0.43194 0.2675,0.11589 0.59707,0.21318 1.03204,0.27754 0.43498,0.0644 0.97538,0.0959 1.45425,0.10766 0.47888,0.0118 0.89622,0.004 3.25068,-0.004 2.35447,-0.008 6.64589,-0.0147 8.94285,0.0631 2.29695,0.0778 2.59931,0.24032 2.85405,0.42922 0.25474,0.18891 0.4619,0.40405 0.59294,0.65733 0.13105,0.25327 0.18617,0.54462 0.22158,0.79266 0.0354,0.24804 0.0511,0.45278 -9e-5,0.68894 -0.0512,0.23615 -0.16935,0.50388 -0.36217,0.74769 -0.19282,0.24381 -0.46041,0.46384 -0.66497,0.61321 -0.20456,0.14938 -0.34613,0.22812 -0.54901,0.29855 -0.20287,0.0704 -0.46711,0.13254 -0.89057,0.15968 -0.42345,0.0272 -1.00615,0.0193 -1.37231,0.0154 -0.36617,-0.004 -0.51579,-0.004 -1.47229,-0.004 -0.9565,-1e-5 -2.71981,-3e-5 -3.72369,0.11945 -1.00388,0.11948 -1.24802,0.35846 -1.44883,0.6433 -0.20082,0.28485 -0.35823,0.61544 -0.4645,0.90678 -0.10627,0.29133 -0.16139,0.5433 -0.19287,0.7717 -0.0315,0.22839 -0.0393,0.43312 -0.0472,0.63787 -0.008,0.20474 -0.0157,0.40946 -0.005,0.57618 0.0111,0.16673 0.0412,0.29539 0.165,0.45646 0.1238,0.16108 0.34111,0.35463 0.60991,0.51853 0.26879,0.16391 0.58903,0.29828 0.90987,0.40083 0.32083,0.10256 0.64223,0.17334 1.04704,0.20871 0.4048,0.0354 0.89301,0.0354 1.36548,0.0354 0.47248,0 0.92919,0 1.28749,0.004 0.35829,0.004 0.61815,0.0118 1.83354,0.01 1.21539,-0.002 3.38623,-0.0134 5.58472,-0.0315 2.1985,-0.0181 4.42425,-0.0427 6.65031,-0.0674 0,0 6.63806,0.0196 6.63806,0.0196 2.77605,0.015 5.55237,0.0301 7.04049,-0.0197 1.48812,-0.0497 1.68849,-0.16423 1.88326,-0.31519 0.19478,-0.15096 0.38403,-0.33845 0.5417,-0.57808 0.15766,-0.23964 0.28379,-0.53156 0.37058,-0.86278 0.0868,-0.33122 0.13421,-0.70182 0.15794,-0.96978 0.0237,-0.26797 0.0237,-0.43334 -0.052,-0.65777 -0.0757,-0.22443 -0.22739,-0.50796 -0.51924,-0.8106 -0.29185,-0.30264 -0.72401,-0.62427 -1.07547,-0.81985 -0.35147,-0.19558 -0.62223,-0.26496 -1.12775,-0.28 -0.50552,-0.0151 -1.2457,0.0243 -2.23601,0.0353 -0.99031,0.011 -2.23068,-0.006 -2.93208,-0.0425 -0.70141,-0.0362 -0.86386,-0.0913 -1.0807,-0.24369 -0.21684,-0.15235 -0.48801,-0.40205 -0.67093,-0.68436 -0.18292,-0.2823 -0.27742,-0.59729 -0.32472,-0.85323 -0.0473,-0.25595 -0.0473,-0.45281 -0.004,-0.65368 0.0433,-0.20087 0.12991,-0.40561 0.22834,-0.59463 0.0984,-0.18902 0.20868,-0.36225 0.36619,-0.56701 0.1575,-0.20477 0.36224,-0.441 0.54249,-0.59715 0.18026,-0.15615 0.33592,-0.23215 0.50829,-0.28983 0.17237,-0.0577 0.36136,-0.0971 1.57625,-0.097 1.21488,3e-5 3.45552,0.0394 4.96268,0.055 1.50715,0.0156 2.28077,0.007 2.91169,-0.005 0.63093,-0.0119 1.11913,-0.0277 1.51287,-0.0356 0.39373,-0.008 0.69296,-0.008 0.92528,0.008 0.23233,0.0158 0.39769,0.0473 0.75791,-0.0534 0.36023,-0.10065 0.91549,-0.33332 1.28752,-0.67006 0.37204,-0.33674 0.56102,-0.7777 0.65555,-1.16742 0.0945,-0.38972 0.0945,-0.72832 0.0437,-1.01125 -0.0508,-0.28294 -0.15244,-0.51025 -0.32134,-0.74992 -0.16891,-0.23967 -0.40514,-0.49165 -0.66543,-0.69358 -0.26028,-0.20192 -0.54467,-0.35369 -0.84829,-0.49259 -0.30363,-0.1389 -0.62648,-0.26489 -0.89817,-0.3358 -0.27168,-0.0709 -0.49217,-0.0866 -1.14174,-0.0681 -0.64957,0.0186 -1.72842,0.0715 -2.80703,0.1244 -4.0708,0.0857 -8.14134,0.17137 -10.25974,0.21029 -2.1184,0.0389 -2.28437,0.0311 -2.54722,-0.0795 -0.26285,-0.11054 -0.62258,-0.32393 -0.84559,-0.50867 -0.223,-0.18474 -0.30911,-0.3409 -0.39943,-0.53317 -0.0903,-0.19227 -0.18482,-0.42064 -0.20066,-0.71599 -0.0158,-0.29536 0.0472,-0.65757 0.0947,-0.88037 0.0476,-0.22279 0.0797,-0.3061 0.25647,-0.57716 0.17672,-0.27105 0.49797,-0.72975 0.95009,-1.01821 0.45211,-0.28846 1.03481,-0.40658 1.4955,-0.46168 0.4607,-0.0551 0.7993,-0.0472 1.28051,-0.0472 0.48121,8e-5 1.10502,-0.008 2.47383,-0.0299 1.36881,-0.0222 3.48254,-0.0591 4.73891,-0.22677 1.25637,-0.16771 1.65556,-0.46629 1.92204,-0.83203 0.26648,-0.36574 0.40034,-0.79884 0.45944,-1.17676 0.0591,-0.37792 0.0434,-0.70077 -0.0105,-0.98251 -0.0539,-0.28174 -0.14602,-0.52238 -0.4243,-0.75698 -0.27828,-0.23459 -0.74286,-0.46294 -1.02489,-0.56868 -0.28204,-0.10574 -0.38131,-0.0887 -0.43107,-0.0801 -0.0498,0.009 -0.0497,0.008 -0.14883,0.008 z"
       id="path847"
       inkscape:path-effect="#path-effect849"
       inkscape:original-d="m 180.37857,127.72878 c -0.19819,2.7e-4 -0.39665,2.7e-4 -0.59537,0 -12.74875,-0.14253 -25.4971,-0.28506 -38.24546,-0.4276 -1.80314,0.002 -3.60648,0.003 -5.41012,0.005 -0.24087,0.2985 -0.48198,0.59672 -0.72337,0.89468 -0.14451,0.32617 -0.28928,0.65207 -0.43431,0.9777 -0.0518,0.43983 -0.10387,0.87938 -0.1562,1.31868 0.0739,0.28172 0.14754,0.56317 0.22092,0.84436 0.20274,0.30264 0.40521,0.60501 0.60742,0.90712 0.23038,0.0711 0.47624,0.142 0.71396,0.21261 0.58397,0.013 1.16766,0.0257 1.7511,0.0382 3.58817,0.0245 7.17593,0.0486 10.76349,0.0725 3.64022,-0.0114 7.28004,-0.0231 10.91965,-0.0351 0.29523,0.0633 0.59019,0.12626 0.88488,0.18899 0.20337,0.19504 0.40646,0.3898 0.60929,0.5843 0.10116,0.2881 0.20205,0.57594 0.30268,0.86351 0.0322,0.28703 0.0642,0.57378 0.0958,0.86027 -0.0376,0.27271 -0.0755,0.54515 -0.1136,0.81733 -0.1066,0.15283 -0.21345,0.30539 -0.32058,0.45769 -0.15722,0.17351 -0.31471,0.34674 -0.47247,0.51972 -0.11621,0.0857 -0.23268,0.17123 -0.34942,0.25644 -0.2596,0.0711 -0.51945,0.14201 -0.77957,0.21262 -0.31008,0.0396 -0.6204,0.079 -0.931,0.11811 -1.51164,-0.0224 -4.53562,-0.068 -4.53562,-0.068 0,0 -9.22834,-0.0786 -13.84291,-0.11831 -0.1128,0.0818 -0.22585,0.16335 -0.33917,0.24464 -0.28723,0.31033 -0.57471,0.62039 -0.86246,0.93018 -0.16778,0.20143 -0.33581,0.40258 -0.50412,0.60347 0.046,0.6172 0.0917,1.23412 0.13711,1.85078 0.21289,0.22864 0.42549,0.45699 0.63784,0.68509 0.2057,0.13487 0.41113,0.26947 0.6163,0.40381 0.32984,0.0975 0.65939,0.19484 0.98868,0.29187 0.54069,0.0318 1.08109,0.0633 1.62124,0.0945 0.41762,-0.008 0.83496,-0.0155 1.25204,-0.0236 4.29185,-0.007 8.58327,-0.0141 12.8745,-0.0215 0.30263,0.16281 0.60499,0.32535 0.90709,0.48763 0.20744,0.21543 0.4146,0.43057 0.6215,0.64547 0.0554,0.29162 0.11051,0.58297 0.16536,0.87407 0.016,0.205 0.0318,0.40974 0.0472,0.61421 -0.11785,0.268 -0.23597,0.53573 -0.35435,0.8032 -0.26734,0.2203 -0.53494,0.44032 -0.8028,0.66009 -0.14132,0.079 -0.28289,0.15775 -0.42473,0.23624 -0.264,0.0624 -0.52825,0.12448 -0.79277,0.18632 -0.58246,-0.008 -1.16516,-0.0155 -1.74814,-0.0236 -0.14935,2.7e-4 -0.29897,2.7e-4 -0.44885,0 -1.76312,2.5e-4 -3.52643,2.2e-4 -5.29004,-6e-5 -0.24389,0.23925 -0.48803,0.47822 -0.73244,0.71694 -0.15716,0.33086 -0.31458,0.66145 -0.47226,0.99178 -0.0549,0.25225 -0.10998,0.50423 -0.16537,0.75595 -0.008,0.205 -0.0155,0.40974 -0.0236,0.61421 -0.008,0.20501 -0.0155,0.40974 -0.0236,0.61421 0.0303,0.12893 0.0604,0.25758 0.0902,0.38597 0.21758,0.19383 0.43489,0.38738 0.65194,0.58066 0.32051,0.13464 0.64075,0.26901 0.96072,0.40312 0.3217,0.0711 0.64311,0.14185 0.96427,0.21238 0.48849,2.7e-4 0.9767,2.7e-4 1.46466,0 0.45699,2.7e-4 0.9137,2.7e-4 1.37016,0 0.26013,0.008 0.51998,0.016 0.77958,0.0236 2.17119,-0.0113 4.34203,-0.0228 6.51265,-0.0346 2.22637,-0.0244 6.67818,-0.0739 6.67818,-0.0739 0,0 6.63806,0.0196 6.63806,0.0196 0,0 5.55237,0.0303 8.32816,0.0451 0.20063,-0.11422 0.401,-0.2287 0.60111,-0.34345 0.18952,-0.18722 0.37878,-0.3747 0.56776,-0.56244 0.1264,-0.29166 0.25253,-0.58358 0.37839,-0.87577 0.0477,-0.37035 0.0951,-0.74095 0.14228,-1.11182 2.6e-4,-0.1651 2.6e-4,-0.33047 0,-0.4961 -0.15139,-0.28328 -0.30303,-0.56681 -0.45494,-0.85061 -0.43192,-0.32139 -0.86408,-0.64302 -1.29652,-0.96492 -0.27051,-0.0691 -0.54127,-0.13849 -0.81229,-0.20813 -0.73996,0.0396 -1.48014,0.079 -2.22061,0.11811 -1.24016,-0.0171 -2.48053,-0.0344 -3.72119,-0.052 -0.1622,-0.0549 -0.32465,-0.11003 -0.48737,-0.16544 -0.27092,-0.24944 -0.54209,-0.49914 -0.81352,-0.7491 -0.0942,-0.31472 -0.18873,-0.6297 -0.28349,-0.94494 2.7e-4,-0.1966 2.7e-4,-0.39346 0,-0.59059 0.0869,-0.20447 0.17351,-0.40921 0.25986,-0.61421 0.11051,-0.17298 0.22075,-0.34621 0.33073,-0.51972 0.20501,-0.23597 0.40974,-0.4722 0.61421,-0.7087 0.15593,-0.0757 0.31158,-0.15173 0.46697,-0.22799 0.18926,-0.0391 0.37824,-0.0785 0.56696,-0.11812 2.24099,0.0396 4.48163,0.079 6.72204,0.11812 0.7739,-0.008 1.54752,-0.0161 2.32088,-0.0245 0.4885,-0.0155 0.9767,-0.0312 1.46466,-0.0472 0.2995,2.6e-4 0.59873,2.6e-4 0.89769,0 0.16564,0.0318 0.331,0.0633 0.4961,0.0945 0.55554,-0.23241 1.11079,-0.46509 1.66579,-0.69803 0.18926,-0.44072 0.37824,-0.88168 0.56697,-1.32292 2.6e-4,-0.33834 2.6e-4,-0.67694 0,-1.01581 -0.10142,-0.22705 -0.20309,-0.45436 -0.30503,-0.68193 -0.23598,-0.25172 -0.47221,-0.50371 -0.70871,-0.75595 -0.28413,-0.15151 -0.56852,-0.30327 -0.85317,-0.4553 -0.3226,-0.12573 -0.64545,-0.25172 -0.96857,-0.37797 -0.22022,-0.0155 -0.44071,-0.0312 -0.66146,-0.0472 -1.07836,0.0532 -3.23583,0.15873 -3.23583,0.15873 0,0 -8.14133,0.17164 -12.21239,0.25707 -0.16574,-0.008 -0.33173,-0.0155 -0.49799,-0.0236 -0.35948,-0.21313 -0.71921,-0.42652 -1.07921,-0.64018 -0.0859,-0.15593 -0.17198,-0.31211 -0.25836,-0.46857 -0.0942,-0.2281 -0.18873,-0.45645 -0.28348,-0.68508 0.0633,-0.36197 0.12625,-0.72419 0.18898,-1.08668 0.0325,-0.083 0.0646,-0.16634 0.0965,-0.2499 0.32153,-0.45846 0.64278,-0.91716 0.96378,-1.37613 0.58299,-0.11786 1.16569,-0.23597 1.74814,-0.35436 0.33888,0.008 0.67747,0.016 1.01581,0.0236 0.6241,-0.007 1.2479,-0.0151 1.87146,-0.0231 2.11407,-0.0365 4.22779,-0.0734 6.34129,-0.11042 0.39946,-0.29833 0.79865,-0.5969 1.19757,-0.89574 0.13413,-0.43284 0.268,-0.86594 0.4016,-1.2993 -0.0155,-0.32259 -0.0312,-0.64544 -0.0472,-0.96856 -0.0919,-0.2404 -0.18402,-0.48105 -0.27643,-0.72197 -0.46434,-0.2281 -0.92893,-0.45645 -1.39379,-0.68508 -0.0991,0.0173 -0.19837,0.0344 -0.29794,0.0512 z" />
  </g>
</svg>
