<svg width="830" height="685" viewBox="0 0 830 685" fill="none" xmlns="http://www.w3.org/2000/svg">
<path d="M373.593 3.96766C372.856 3.96766 371.381 3.96763 323.245 3.43713C275.108 2.90662 180.316 1.8464 126.216 1.32237C72.1164 0.798563 58.7075 0.810465 51.1053 1.92653C43.5031 3.04237 41.7103 5.26117 40.2756 7.58348C38.8407 9.90571 37.7642 12.3305 37.0326 15.1785C36.3009 18.0266 35.9137 21.2971 35.9943 23.9797C36.0746 26.6624 36.6226 28.7565 37.6494 30.9285C38.6764 33.1004 40.182 35.3502 41.7931 36.7299C43.4041 38.1097 45.2275 38.653 48.2822 38.9637C51.337 39.2747 55.6771 39.3691 71.1864 39.506C86.6956 39.6437 113.373 39.823 140.244 39.8699C167.116 39.9145 194.18 39.8327 208.809 40.0202C223.439 40.2114 225.632 40.6802 227.483 41.6397C229.335 42.5994 230.845 44.0484 231.975 45.844C233.104 47.6396 233.855 49.7813 234.348 51.9189C234.842 54.0565 235.079 56.19 235.057 58.2701C235.034 60.3501 234.753 62.3772 234.215 63.9577C233.676 65.5382 232.882 66.6733 231.899 67.8852C230.917 69.0971 229.746 70.386 228.727 71.3483C227.709 72.3106 226.843 72.9467 225.444 73.5283C224.046 74.1102 222.113 74.6373 219.994 75.0475C217.874 75.4575 215.567 75.7506 208.792 75.8129C202.017 75.8724 190.774 75.7065 179.532 75.5376C145.222 75.2445 110.914 74.9506 93.3373 75.1076C75.761 75.2638 74.9204 75.8707 73.4309 77.3278C71.9416 78.7848 69.8039 81.0918 68.1103 82.9937C66.4167 84.8956 65.1673 86.3922 64.7126 89.4366C64.2583 92.4811 64.5981 97.0713 65.559 100.216C66.5203 103.361 68.1012 105.06 69.6556 106.41C71.21 107.76 72.7375 108.761 74.7265 109.623C76.7155 110.486 79.1661 111.21 82.4004 111.689C85.6348 112.168 89.653 112.402 93.2137 112.489C96.7745 112.577 99.8776 112.519 117.385 112.46C134.891 112.4 166.801 112.35 183.88 112.929C200.96 113.508 203.208 114.717 205.102 116.123C206.996 117.528 208.537 119.129 209.511 121.014C210.485 122.898 210.895 125.066 211.158 126.911C211.422 128.757 211.538 130.28 211.158 132.037C210.777 133.794 209.899 135.786 208.465 137.6C207.031 139.415 205.041 141.052 203.52 142.163C201.999 143.275 200.947 143.86 199.438 144.384C197.93 144.908 195.965 145.37 192.816 145.572C189.667 145.775 185.335 145.716 182.612 145.687C179.889 145.657 178.777 145.657 171.665 145.657C164.553 145.657 151.441 145.657 143.977 146.546C136.512 147.435 134.697 149.213 133.204 151.332C131.711 153.452 130.54 155.912 129.75 158.079C128.96 160.247 128.55 162.122 128.316 163.821C128.082 165.52 128.024 167.044 127.965 168.567C127.905 170.09 127.848 171.614 127.928 172.854C128.01 174.095 128.234 175.052 129.155 176.25C130.075 177.449 131.691 178.889 133.69 180.108C135.688 181.328 138.069 182.328 140.455 183.091C142.841 183.854 145.231 184.381 148.241 184.644C151.25 184.907 154.881 184.907 158.394 184.907C161.907 184.907 165.303 184.907 167.967 184.937C170.631 184.967 172.563 185.025 181.601 185.011C190.638 184.996 206.779 184.912 223.127 184.777C239.474 184.642 256.024 184.459 272.576 184.275L321.934 184.421C342.576 184.533 363.219 184.645 374.284 184.275C385.35 183.905 386.839 183.053 388.288 181.93C389.736 180.806 391.143 179.411 392.316 177.628C393.488 175.845 394.426 173.673 395.071 171.209C395.716 168.745 396.069 165.987 396.245 163.993C396.422 162 396.422 160.769 395.859 159.099C395.296 157.429 394.168 155.32 391.998 153.068C389.828 150.816 386.614 148.423 384.001 146.968C381.388 145.513 379.374 144.997 375.616 144.885C371.857 144.772 366.353 145.066 358.989 145.147C351.626 145.229 342.403 145.103 337.188 144.831C331.972 144.562 330.764 144.152 329.152 143.018C327.539 141.884 325.523 140.027 324.163 137.926C322.803 135.826 322.1 133.482 321.749 131.578C321.397 129.673 321.397 128.209 321.719 126.714C322.041 125.219 322.685 123.696 323.417 122.29C324.148 120.883 324.968 119.594 326.14 118.071C327.311 116.547 328.833 114.79 330.173 113.628C331.514 112.466 332.671 111.901 333.953 111.471C335.234 111.042 336.64 110.749 345.673 110.75C354.707 110.75 371.367 111.043 382.574 111.159C393.78 111.275 399.533 111.211 404.224 111.122C408.915 111.033 412.546 110.916 415.473 110.857C418.401 110.797 420.626 110.797 422.353 110.916C424.081 111.034 425.31 111.268 427.989 110.519C430.667 109.77 434.796 108.039 437.562 105.534C440.329 103.028 441.734 99.7471 442.437 96.8474C443.139 93.9477 443.139 91.4283 442.762 89.3232C442.384 87.218 441.628 85.5268 440.372 83.7436C439.116 81.9603 437.36 80.0854 435.424 78.583C433.489 77.0806 431.375 75.9514 429.117 74.918C426.859 73.8845 424.459 72.9471 422.438 72.4195C420.418 71.8919 418.779 71.7751 413.949 71.9128C409.119 72.0512 401.097 72.4448 393.077 72.8384C362.808 73.476 332.541 74.1134 316.789 74.403C301.037 74.6924 299.803 74.6344 297.849 73.8115C295.895 72.989 293.22 71.4013 291.561 70.0268C289.903 68.6522 289.263 67.4903 288.591 66.0597C287.92 64.6292 287.217 62.93 287.099 60.7325C286.982 58.5349 287.45 55.8399 287.804 54.1822C288.157 52.5245 288.396 51.9046 289.711 49.8878C291.025 47.8711 293.413 44.4582 296.775 42.312C300.137 40.1657 304.47 39.2868 307.895 38.8768C311.321 38.4669 313.838 38.5257 317.417 38.5257C320.995 38.5263 325.633 38.4661 335.811 38.3031C345.989 38.138 361.706 37.8635 371.048 36.616C380.39 35.3681 383.358 33.1465 385.339 30.4253C387.321 27.704 388.316 24.4816 388.756 21.6697C389.195 18.8578 389.078 16.4557 388.677 14.3594C388.277 12.2631 387.592 10.4726 385.523 8.72708C383.453 6.98164 379.999 5.28267 377.902 4.49592C375.805 3.70917 375.067 3.83595 374.697 3.89994C374.326 3.9669 374.327 3.95943 373.59 3.95943L373.593 3.96766Z" fill="#A3BCE7" stroke="#A3BCE7" stroke-width="0.264583"/>
<path d="M947.609 109.98C946.873 109.98 945.397 109.98 897.261 109.45C849.124 108.919 754.332 107.859 700.232 107.335C646.133 106.811 632.724 106.823 625.122 107.939C617.519 109.055 615.727 111.274 614.292 113.596C612.857 115.918 611.78 118.343 611.049 121.191C610.317 124.039 609.93 127.31 610.01 129.992C610.091 132.675 610.639 134.769 611.666 136.941C612.693 139.113 614.198 141.363 615.809 142.743C617.42 144.122 619.244 144.666 622.298 144.976C625.353 145.287 629.693 145.382 645.203 145.519C660.712 145.656 687.389 145.836 714.261 145.883C741.132 145.927 768.197 145.845 782.826 146.033C797.455 146.224 799.648 146.693 801.5 147.652C803.351 148.612 804.861 150.061 805.991 151.857C807.12 153.652 807.871 155.794 808.364 157.932C808.858 160.069 809.095 162.203 809.073 164.283C809.051 166.363 808.769 168.39 808.231 169.97C807.693 171.551 806.898 172.686 805.916 173.898C804.933 175.11 803.762 176.399 802.744 177.361C801.725 178.323 800.859 178.959 799.46 179.541C798.062 180.123 796.13 180.65 794.01 181.06C791.89 181.47 789.583 181.763 782.808 181.826C776.033 181.885 764.79 181.719 753.548 181.55C719.238 181.257 684.93 180.963 667.353 181.12C649.777 181.276 648.937 181.883 647.447 183.34C645.958 184.798 643.82 187.104 642.126 189.006C640.433 190.908 639.184 192.405 638.729 195.449C638.275 198.494 638.614 203.084 639.575 206.229C640.537 209.373 642.117 211.072 643.672 212.422C645.226 213.772 646.754 214.774 648.743 215.636C650.732 216.498 653.182 217.222 656.417 217.701C659.651 218.18 663.669 218.415 667.23 218.502C670.791 218.59 673.894 218.532 691.401 218.472C708.908 218.413 740.817 218.363 757.897 218.942C774.976 219.521 777.224 220.73 779.118 222.136C781.012 223.541 782.553 225.142 783.527 227.026C784.502 228.911 784.911 231.078 785.175 232.924C785.438 234.77 785.555 236.293 785.174 238.05C784.793 239.807 783.915 241.799 782.481 243.613C781.047 245.427 779.058 247.064 777.537 248.176C776.016 249.287 774.963 249.873 773.454 250.397C771.946 250.921 769.981 251.383 766.832 251.585C763.684 251.788 759.351 251.729 756.628 251.7C753.906 251.67 752.793 251.67 745.681 251.67C738.569 251.67 725.457 251.67 717.993 252.559C710.528 253.448 708.713 255.226 707.22 257.345C705.727 259.465 704.556 261.924 703.766 264.092C702.976 266.26 702.566 268.134 702.332 269.834C702.098 271.533 702.04 273.056 701.981 274.58C701.922 276.103 701.864 277.626 701.944 278.867C702.026 280.107 702.25 281.065 703.171 282.263C704.091 283.462 705.707 284.902 707.706 286.121C709.704 287.341 712.086 288.341 714.471 289.104C716.857 289.867 719.247 290.393 722.257 290.656C725.267 290.92 728.897 290.92 732.41 290.92C735.923 290.92 739.319 290.92 741.983 290.95C744.647 290.979 746.58 291.037 755.617 291.024C764.654 291.009 780.796 290.924 797.143 290.79C813.49 290.655 830.04 290.472 846.592 290.288L895.95 290.434C916.592 290.546 937.236 290.658 948.301 290.287C959.366 289.918 960.856 289.065 962.304 287.942C963.752 286.819 965.159 285.424 966.332 283.641C967.504 281.858 968.442 279.686 969.087 277.222C969.733 274.757 970.085 272 970.262 270.006C970.438 268.012 970.438 266.782 969.875 265.112C969.312 263.442 968.184 261.333 966.014 259.081C963.844 256.829 960.631 254.436 958.017 252.981C955.404 251.525 953.391 251.009 949.632 250.897C945.873 250.785 940.369 251.078 933.006 251.16C925.642 251.242 916.419 251.115 911.204 250.844C905.988 250.574 904.78 250.165 903.168 249.031C901.556 247.897 899.539 246.039 898.179 243.939C896.819 241.838 896.117 239.495 895.765 237.59C895.413 235.686 895.413 234.221 895.735 232.727C896.057 231.232 896.701 229.709 897.433 228.302C898.165 226.896 898.985 225.607 900.156 224.084C901.327 222.56 902.849 220.802 904.189 219.641C905.53 218.479 906.687 217.913 907.969 217.484C909.251 217.055 910.656 216.762 919.689 216.762C928.723 216.763 945.383 217.056 956.59 217.172C967.797 217.288 973.549 217.224 978.24 217.134C982.932 217.046 986.562 216.928 989.489 216.869C992.417 216.81 994.642 216.81 996.37 216.929C998.097 217.047 999.327 217.281 1002.01 216.532C1004.68 215.783 1008.81 214.052 1011.58 211.546C1014.34 209.041 1015.75 205.76 1016.45 202.86C1017.16 199.96 1017.16 197.441 1016.78 195.336C1016.4 193.231 1015.64 191.54 1014.39 189.756C1013.13 187.973 1011.38 186.098 1009.44 184.596C1007.51 183.093 1005.39 181.964 1003.13 180.931C1000.88 179.897 998.475 178.96 996.455 178.432C994.434 177.905 992.795 177.788 987.965 177.925C983.135 178.064 975.113 178.457 967.093 178.851C936.824 179.489 906.557 180.126 890.805 180.416C875.054 180.705 873.82 180.647 871.865 179.824C869.911 179.002 867.236 177.414 865.578 176.039C863.919 174.665 863.279 173.503 862.608 172.072C861.936 170.642 861.233 168.943 861.116 166.745C860.998 164.548 861.467 161.853 861.82 160.195C862.174 158.537 862.412 157.917 863.727 155.901C865.041 153.884 867.429 150.471 870.791 148.325C874.153 146.178 878.486 145.299 881.911 144.89C885.337 144.48 887.855 144.538 891.433 144.538C895.011 144.539 899.649 144.479 909.827 144.316C920.005 144.151 935.722 143.876 945.064 142.629C954.406 141.381 957.374 139.159 959.356 136.438C961.337 133.717 962.332 130.494 962.772 127.682C963.211 124.871 963.094 122.468 962.694 120.372C962.293 118.276 961.608 116.485 959.539 114.74C957.47 112.994 954.015 111.295 951.918 110.509C949.821 109.722 949.083 109.849 948.713 109.913C948.343 109.98 948.343 109.972 947.606 109.972L947.609 109.98Z" fill="#A3BCE7" stroke="#A3BCE7" stroke-width="0.264583"/>
<g clip-path="url(#clip0)">
<path opacity="0.999" d="M445.272 296.391C483.61 296.391 514.689 273.345 514.689 244.917C514.689 216.49 483.61 193.444 445.272 193.444C406.934 193.444 375.855 216.49 375.855 244.917C375.855 273.345 406.934 296.391 445.272 296.391Z" fill="#B5B2B2"/>
<path d="M521.022 404.205C520.449 404.205 519.301 404.205 481.868 403.793C444.435 403.381 370.72 402.557 328.649 402.149C286.579 401.742 276.151 401.751 270.239 402.619C264.327 403.486 262.933 405.21 261.818 407.015C260.702 408.82 259.865 410.704 259.296 412.918C258.727 415.131 258.426 417.673 258.488 419.757C258.551 421.842 258.977 423.47 259.775 425.158C260.574 426.846 261.745 428.594 262.998 429.666C264.25 430.739 265.668 431.161 268.044 431.402C270.419 431.644 273.795 431.717 285.855 431.824C297.916 431.931 318.662 432.07 339.558 432.106C360.455 432.141 381.501 432.078 392.878 432.223C404.254 432.372 405.96 432.736 407.399 433.482C408.839 434.228 410.014 435.354 410.892 436.749C411.77 438.145 412.354 439.809 412.738 441.47C413.122 443.132 413.306 444.79 413.289 446.406C413.271 448.023 413.052 449.598 412.634 450.826C412.215 452.055 411.598 452.937 410.834 453.879C410.069 454.82 409.159 455.822 408.367 456.57C407.575 457.318 406.901 457.812 405.814 458.264C404.726 458.716 403.223 459.126 401.575 459.445C399.927 459.763 398.132 459.991 392.864 460.04C387.596 460.086 378.852 459.957 370.11 459.826C343.429 459.598 316.749 459.369 303.081 459.491C289.413 459.613 288.759 460.084 287.601 461.217C286.443 462.349 284.78 464.142 283.463 465.62C282.146 467.098 281.175 468.261 280.821 470.627C280.468 472.993 280.732 476.56 281.479 479.004C282.227 481.448 283.456 482.768 284.665 483.818C285.874 484.867 287.062 485.645 288.608 486.315C290.155 486.985 292.061 487.548 294.576 487.92C297.091 488.293 300.216 488.475 302.985 488.543C305.754 488.611 308.167 488.566 321.781 488.52C335.396 488.473 360.21 488.435 373.492 488.884C386.773 489.334 388.522 490.274 389.995 491.366C391.468 492.459 392.665 493.703 393.423 495.167C394.181 496.632 394.5 498.316 394.704 499.751C394.909 501.185 395 502.369 394.704 503.734C394.408 505.1 393.725 506.648 392.61 508.058C391.495 509.467 389.947 510.74 388.765 511.603C387.582 512.467 386.763 512.922 385.59 513.33C384.417 513.737 382.889 514.096 380.44 514.253C377.992 514.41 374.623 514.365 372.505 514.342C370.388 514.319 369.523 514.319 363.992 514.319C358.461 514.319 348.265 514.319 342.461 515.01C336.656 515.701 335.244 517.082 334.083 518.729C332.922 520.376 332.012 522.288 331.397 523.973C330.783 525.657 330.464 527.114 330.282 528.435C330.1 529.756 330.055 530.939 330.009 532.123C329.963 533.307 329.918 534.491 329.98 535.455C330.044 536.419 330.218 537.163 330.934 538.094C331.65 539.026 332.907 540.145 334.461 541.093C336.015 542.04 337.867 542.817 339.722 543.41C341.577 544.003 343.436 544.413 345.776 544.617C348.117 544.822 350.94 544.822 353.672 544.822C356.404 544.822 359.045 544.822 361.117 544.845C363.188 544.868 364.691 544.913 371.719 544.903C378.747 544.891 391.299 544.825 404.011 544.721C416.724 544.616 429.594 544.474 442.465 544.331L480.849 544.444C496.901 544.531 512.954 544.618 521.559 544.33C530.164 544.043 531.322 543.381 532.449 542.508C533.575 541.635 534.669 540.551 535.581 539.165C536.493 537.78 537.222 536.092 537.724 534.176C538.226 532.261 538.5 530.118 538.637 528.569C538.774 527.019 538.774 526.063 538.336 524.765C537.899 523.468 537.021 521.828 535.334 520.078C533.646 518.328 531.147 516.468 529.115 515.338C527.083 514.207 525.517 513.805 522.594 513.718C519.671 513.631 515.391 513.859 509.665 513.923C503.939 513.986 496.766 513.888 492.711 513.677C488.655 513.468 487.716 513.149 486.462 512.268C485.208 511.387 483.64 509.943 482.582 508.311C481.524 506.678 480.978 504.857 480.705 503.377C480.431 501.897 480.431 500.759 480.681 499.597C480.932 498.436 481.433 497.252 482.002 496.159C482.571 495.066 483.208 494.064 484.119 492.88C485.03 491.696 486.214 490.33 487.256 489.427C488.298 488.524 489.198 488.085 490.195 487.751C491.192 487.418 492.285 487.19 499.31 487.19C506.334 487.191 519.29 487.418 528.005 487.509C536.72 487.599 541.193 487.549 544.842 487.48C548.49 487.411 551.313 487.319 553.589 487.274C555.866 487.228 557.596 487.227 558.94 487.32C560.283 487.411 561.239 487.594 563.322 487.011C565.405 486.429 568.616 485.084 570.767 483.137C572.918 481.19 574.011 478.64 574.558 476.386C575.104 474.133 575.104 472.175 574.81 470.539C574.517 468.903 573.929 467.589 572.952 466.203C571.976 464.817 570.61 463.36 569.104 462.192C567.599 461.025 565.955 460.147 564.199 459.344C562.444 458.541 560.577 457.812 559.006 457.402C557.435 456.992 556.16 456.902 552.404 457.009C548.648 457.116 542.41 457.422 536.173 457.728C512.634 458.223 489.097 458.719 476.848 458.944C464.599 459.169 463.639 459.124 462.119 458.484C460.599 457.845 458.519 456.611 457.23 455.543C455.94 454.475 455.442 453.572 454.92 452.46C454.398 451.348 453.851 450.028 453.76 448.32C453.668 446.612 454.033 444.517 454.307 443.229C454.583 441.941 454.768 441.459 455.79 439.892C456.812 438.325 458.67 435.672 461.284 434.004C463.898 432.336 467.268 431.653 469.931 431.335C472.595 431.016 474.553 431.062 477.336 431.062C480.118 431.062 483.725 431.015 491.64 430.889C499.555 430.76 511.777 430.547 519.042 429.578C526.307 428.608 528.615 426.881 530.156 424.767C531.697 422.652 532.471 420.147 532.812 417.962C533.154 415.777 533.063 413.91 532.752 412.281C532.44 410.652 531.907 409.26 530.298 407.904C528.689 406.547 526.003 405.227 524.372 404.616C522.741 404.004 522.167 404.103 521.88 404.152C521.592 404.205 521.592 404.199 521.019 404.199L521.022 404.205Z" fill="#4484F2" stroke="#4484F2" stroke-width="0.264583"/>
<path opacity="0.999" d="M513.5 634C679.462 634 814 499.462 814 333.5C814 167.538 679.462 33 513.5 33C347.538 33 213 167.538 213 333.5C213 499.462 347.538 634 513.5 634Z" fill="#C2BFBF"/>
<path opacity="0.999" d="M565.155 238.034C603.493 238.034 634.572 208.601 634.572 172.294C634.572 135.987 603.493 106.554 565.155 106.554C526.817 106.554 495.738 135.987 495.738 172.294C495.738 208.601 526.817 238.034 565.155 238.034Z" fill="#B5B2B2"/>
<path opacity="0.999" d="M702.603 391.15C720.397 391.15 734.822 377.988 734.822 361.753C734.822 345.517 720.397 332.356 702.603 332.356C684.809 332.356 670.384 345.517 670.384 361.753C670.384 377.988 684.809 391.15 702.603 391.15Z" fill="#B5B2B2"/>
<path opacity="0.999" d="M339.945 396.442C378.283 396.442 409.362 365.023 409.362 326.266C409.362 287.509 378.283 256.09 339.945 256.09C301.607 256.09 270.528 287.509 270.528 326.266C270.528 365.023 301.607 396.442 339.945 396.442Z" fill="#B5B2B2"/>
<path opacity="0.999" d="M357.225 173.118C370.004 173.118 380.364 162.645 380.364 149.726C380.364 136.807 370.004 126.334 357.225 126.334C344.446 126.334 334.086 136.807 334.086 149.726C334.086 162.645 344.446 173.118 357.225 173.118Z" fill="#B5B2B2"/>
<path opacity="0.999" d="M478.455 592.313C497.624 592.313 513.164 577.597 513.164 559.443C513.164 541.289 497.624 526.573 478.455 526.573C459.286 526.573 443.747 541.289 443.747 559.443C443.747 577.597 459.286 592.313 478.455 592.313Z" fill="#B5B2B2"/>
<path d="M298.02 247C302.36 247 306.117 247.723 309.29 249.17C312.51 250.617 314.983 252.67 316.71 255.33C318.437 257.99 319.3 261.14 319.3 264.78C319.3 268.373 318.437 271.523 316.71 274.23C314.983 276.89 312.51 278.943 309.29 280.39C306.117 281.79 302.36 282.49 298.02 282.49H288.15V296H276.81V247H298.02ZM297.39 273.25C300.797 273.25 303.387 272.527 305.16 271.08C306.933 269.587 307.82 267.487 307.82 264.78C307.82 262.027 306.933 259.927 305.16 258.48C303.387 256.987 300.797 256.24 297.39 256.24H288.15V273.25H297.39ZM351.81 296.84C346.723 296.84 342.126 295.743 338.02 293.55C333.96 291.357 330.763 288.347 328.43 284.52C326.143 280.647 325 276.307 325 271.5C325 266.693 326.143 262.377 328.43 258.55C330.763 254.677 333.96 251.643 338.02 249.45C342.126 247.257 346.723 246.16 351.81 246.16C356.896 246.16 361.47 247.257 365.53 249.45C369.59 251.643 372.786 254.677 375.12 258.55C377.453 262.377 378.62 266.693 378.62 271.5C378.62 276.307 377.453 280.647 375.12 284.52C372.786 288.347 369.59 291.357 365.53 293.55C361.47 295.743 356.896 296.84 351.81 296.84ZM351.81 287.18C354.703 287.18 357.316 286.527 359.65 285.22C361.983 283.867 363.803 282 365.11 279.62C366.463 277.24 367.14 274.533 367.14 271.5C367.14 268.467 366.463 265.76 365.11 263.38C363.803 261 361.983 259.157 359.65 257.85C357.316 256.497 354.703 255.82 351.81 255.82C348.916 255.82 346.303 256.497 343.97 257.85C341.636 259.157 339.793 261 338.44 263.38C337.133 265.76 336.48 268.467 336.48 271.5C336.48 274.533 337.133 277.24 338.44 279.62C339.793 282 341.636 283.867 343.97 285.22C346.303 286.527 348.916 287.18 351.81 287.18ZM418.362 296L408.912 282.35H408.352H398.482V296H387.142V247H408.352C412.692 247 416.449 247.723 419.622 249.17C422.842 250.617 425.315 252.67 427.042 255.33C428.769 257.99 429.632 261.14 429.632 264.78C429.632 268.42 428.745 271.57 426.972 274.23C425.245 276.843 422.772 278.85 419.552 280.25L430.542 296H418.362ZM418.152 264.78C418.152 262.027 417.265 259.927 415.492 258.48C413.719 256.987 411.129 256.24 407.722 256.24H398.482V273.32H407.722C411.129 273.32 413.719 272.573 415.492 271.08C417.265 269.587 418.152 267.487 418.152 264.78ZM448.083 256.24H432.403V247H475.103V256.24H459.423V296H448.083V256.24ZM492.545 256.1V269.05H515.225V278.15H492.545V296H481.205V247H518.235V256.1H492.545ZM549.163 296.84C544.076 296.84 539.48 295.743 535.373 293.55C531.313 291.357 528.116 288.347 525.783 284.52C523.496 280.647 522.353 276.307 522.353 271.5C522.353 266.693 523.496 262.377 525.783 258.55C528.116 254.677 531.313 251.643 535.373 249.45C539.48 247.257 544.076 246.16 549.163 246.16C554.25 246.16 558.823 247.257 562.883 249.45C566.943 251.643 570.14 254.677 572.473 258.55C574.806 262.377 575.973 266.693 575.973 271.5C575.973 276.307 574.806 280.647 572.473 284.52C570.14 288.347 566.943 291.357 562.883 293.55C558.823 295.743 554.25 296.84 549.163 296.84ZM549.163 287.18C552.056 287.18 554.67 286.527 557.003 285.22C559.336 283.867 561.156 282 562.463 279.62C563.816 277.24 564.493 274.533 564.493 271.5C564.493 268.467 563.816 265.76 562.463 263.38C561.156 261 559.336 259.157 557.003 257.85C554.67 256.497 552.056 255.82 549.163 255.82C546.27 255.82 543.656 256.497 541.323 257.85C538.99 259.157 537.146 261 535.793 263.38C534.486 265.76 533.833 268.467 533.833 271.5C533.833 274.533 534.486 277.24 535.793 279.62C537.146 282 538.99 283.867 541.323 285.22C543.656 286.527 546.27 287.18 549.163 287.18ZM584.496 247H595.836V286.76H620.406V296H584.496V247ZM626.742 247H638.082V296H626.742V247ZM673.44 296.84C668.354 296.84 663.757 295.743 659.65 293.55C655.59 291.357 652.394 288.347 650.06 284.52C647.774 280.647 646.63 276.307 646.63 271.5C646.63 266.693 647.774 262.377 650.06 258.55C652.394 254.677 655.59 251.643 659.65 249.45C663.757 247.257 668.354 246.16 673.44 246.16C678.527 246.16 683.1 247.257 687.16 249.45C691.22 251.643 694.417 254.677 696.75 258.55C699.084 262.377 700.25 266.693 700.25 271.5C700.25 276.307 699.084 280.647 696.75 284.52C694.417 288.347 691.22 291.357 687.16 293.55C683.1 295.743 678.527 296.84 673.44 296.84ZM673.44 287.18C676.334 287.18 678.947 286.527 681.28 285.22C683.614 283.867 685.434 282 686.74 279.62C688.094 277.24 688.77 274.533 688.77 271.5C688.77 268.467 688.094 265.76 686.74 263.38C685.434 261 683.614 259.157 681.28 257.85C678.947 256.497 676.334 255.82 673.44 255.82C670.547 255.82 667.934 256.497 665.6 257.85C663.267 259.157 661.424 261 660.07 263.38C658.764 265.76 658.11 268.467 658.11 271.5C658.11 274.533 658.764 277.24 660.07 279.62C661.424 282 663.267 283.867 665.6 285.22C667.934 286.527 670.547 287.18 673.44 287.18Z" fill="#DE5757"/>
</g>
<path d="M816.593 502.968C815.856 502.968 814.381 502.968 766.245 502.437C718.108 501.907 623.316 500.846 569.216 500.322C515.116 499.799 501.707 499.81 494.105 500.927C486.503 502.042 484.71 504.261 483.276 506.583C481.841 508.906 480.764 511.33 480.033 514.179C479.301 517.027 478.914 520.297 478.994 522.98C479.075 525.662 479.623 527.757 480.649 529.928C481.676 532.1 483.182 534.35 484.793 535.73C486.404 537.11 488.228 537.653 491.282 537.964C494.337 538.275 498.677 538.369 514.186 538.506C529.696 538.644 556.373 538.823 583.244 538.87C610.116 538.915 637.18 538.833 651.809 539.02C666.439 539.211 668.632 539.68 670.483 540.64C672.335 541.599 673.845 543.048 674.975 544.844C676.104 546.64 676.855 548.781 677.348 550.919C677.842 553.056 678.079 555.19 678.057 557.27C678.034 559.35 677.753 561.377 677.215 562.958C676.676 564.538 675.882 565.673 674.899 566.885C673.917 568.097 672.746 569.386 671.727 570.348C670.709 571.311 669.843 571.947 668.444 572.528C667.046 573.11 665.113 573.637 662.994 574.047C660.874 574.457 658.566 574.751 651.792 574.813C645.017 574.872 633.774 574.707 622.532 574.538C588.222 574.244 553.914 573.951 536.337 574.108C518.761 574.264 517.92 574.871 516.431 576.328C514.942 577.785 512.804 580.092 511.11 581.994C509.417 583.896 508.167 585.392 507.713 588.437C507.258 591.481 507.598 596.071 508.559 599.216C509.52 602.361 511.101 604.06 512.656 605.41C514.21 606.76 515.737 607.761 517.727 608.623C519.716 609.486 522.166 610.21 525.4 610.689C528.635 611.168 532.653 611.402 536.214 611.489C539.774 611.577 542.878 611.519 560.385 611.46C577.891 611.4 609.801 611.35 626.88 611.929C643.96 612.508 646.208 613.717 648.102 615.123C649.996 616.528 651.537 618.129 652.511 620.014C653.485 621.898 653.895 624.066 654.158 625.911C654.422 627.757 654.538 629.28 654.158 631.037C653.777 632.794 652.899 634.786 651.465 636.6C650.031 638.415 648.041 640.052 646.52 641.163C644.999 642.275 643.947 642.86 642.438 643.384C640.93 643.908 638.965 644.37 635.816 644.572C632.667 644.775 628.335 644.716 625.612 644.687C622.889 644.657 621.777 644.657 614.665 644.657C607.553 644.657 594.441 644.657 586.977 645.546C579.512 646.435 577.697 648.213 576.204 650.332C574.711 652.452 573.54 654.912 572.75 657.079C571.96 659.247 571.55 661.122 571.316 662.821C571.082 664.52 571.024 666.044 570.965 667.567C570.905 669.09 570.848 670.614 570.928 671.854C571.01 673.095 571.234 674.052 572.155 675.25C573.075 676.449 574.691 677.889 576.69 679.108C578.688 680.328 581.069 681.328 583.455 682.091C585.841 682.854 588.231 683.381 591.241 683.644C594.25 683.907 597.881 683.907 601.394 683.907C604.907 683.907 608.303 683.907 610.967 683.937C613.631 683.967 615.563 684.025 624.601 684.011C633.638 683.996 649.779 683.912 666.126 683.777C682.474 683.642 699.024 683.459 715.576 683.275L764.934 683.421C785.576 683.533 806.219 683.645 817.284 683.275C828.35 682.905 829.839 682.053 831.288 680.93C832.736 679.806 834.143 678.411 835.316 676.628C836.488 674.845 837.426 672.673 838.071 670.209C838.716 667.745 839.069 664.987 839.245 662.993C839.422 661 839.422 659.769 838.859 658.099C838.296 656.429 837.168 654.32 834.998 652.068C832.828 649.816 829.614 647.423 827.001 645.968C824.388 644.513 822.374 643.997 818.616 643.885C814.857 643.772 809.353 644.066 801.989 644.147C794.626 644.229 785.403 644.103 780.188 643.831C774.972 643.562 773.764 643.152 772.152 642.018C770.539 640.884 768.523 639.027 767.163 636.926C765.803 634.826 765.1 632.482 764.749 630.578C764.397 628.673 764.397 627.209 764.719 625.714C765.041 624.219 765.685 622.696 766.417 621.29C767.148 619.883 767.968 618.594 769.14 617.071C770.311 615.547 771.833 613.79 773.173 612.628C774.514 611.466 775.671 610.901 776.953 610.471C778.234 610.042 779.64 609.749 788.673 609.75C797.707 609.75 814.367 610.043 825.574 610.159C836.78 610.275 842.533 610.211 847.224 610.122C851.915 610.033 855.546 609.916 858.473 609.857C861.401 609.797 863.626 609.797 865.353 609.916C867.081 610.034 868.31 610.268 870.989 609.519C873.667 608.77 877.796 607.039 880.562 604.534C883.329 602.028 884.734 598.747 885.437 595.847C886.139 592.948 886.139 590.428 885.762 588.323C885.384 586.218 884.628 584.527 883.372 582.744C882.116 580.96 880.36 579.085 878.424 577.583C876.489 576.081 874.375 574.951 872.117 573.918C869.859 572.884 867.459 571.947 865.438 571.419C863.418 570.892 861.779 570.775 856.949 570.913C852.119 571.051 844.097 571.445 836.077 571.838C805.808 572.476 775.541 573.113 759.789 573.403C744.037 573.692 742.803 573.634 740.849 572.811C738.895 571.989 736.22 570.401 734.561 569.027C732.903 567.652 732.263 566.49 731.591 565.06C730.92 563.629 730.217 561.93 730.099 559.732C729.982 557.535 730.45 554.84 730.804 553.182C731.157 551.525 731.396 550.905 732.711 548.888C734.025 546.871 736.413 543.458 739.775 541.312C743.137 539.166 747.47 538.287 750.895 537.877C754.321 537.467 756.838 537.526 760.417 537.526C763.995 537.526 768.633 537.466 778.811 537.303C788.989 537.138 804.706 536.863 814.048 535.616C823.39 534.368 826.358 532.147 828.339 529.425C830.321 526.704 831.316 523.482 831.756 520.67C832.195 517.858 832.078 515.456 831.677 513.359C831.277 511.263 830.592 509.473 828.523 507.727C826.453 505.982 822.999 504.283 820.902 503.496C818.805 502.709 818.067 502.836 817.697 502.9C817.326 502.967 817.327 502.959 816.59 502.959L816.593 502.968Z" fill="#4484F2" stroke="#4484F2" stroke-width="0.264583"/>
<path d="M338.593 365.968C337.856 365.968 336.381 365.968 288.245 365.437C240.108 364.907 145.316 363.846 91.2163 363.322C37.1164 362.799 23.7075 362.81 16.1053 363.927C8.50311 365.042 6.71032 367.261 5.27554 369.583C3.84069 371.906 2.76422 374.33 2.03255 377.179C1.30089 380.027 0.913689 383.297 0.994291 385.98C1.0746 388.662 1.62257 390.757 2.64943 392.928C3.67644 395.1 5.18198 397.35 6.79306 398.73C8.40406 400.11 10.2275 400.653 13.2822 400.964C16.337 401.275 20.677 401.369 36.1864 401.506C51.6956 401.644 78.3728 401.823 105.244 401.87C132.116 401.915 159.18 401.833 173.809 402.02C188.439 402.211 190.632 402.68 192.483 403.64C194.335 404.599 195.845 406.048 196.975 407.844C198.104 409.64 198.855 411.781 199.348 413.919C199.842 416.056 200.079 418.19 200.057 420.27C200.034 422.35 199.753 424.377 199.215 425.958C198.676 427.538 197.882 428.673 196.899 429.885C195.917 431.097 194.746 432.386 193.727 433.348C192.709 434.311 191.843 434.947 190.444 435.528C189.046 436.11 187.113 436.637 184.994 437.047C182.874 437.457 180.566 437.751 173.792 437.813C167.017 437.872 155.774 437.707 144.532 437.538C110.222 437.244 75.9135 436.951 58.3373 437.108C40.761 437.264 39.9204 437.871 38.4309 439.328C36.9416 440.785 34.8039 443.092 33.1103 444.994C31.4167 446.896 30.1673 448.392 29.7126 451.437C29.2583 454.481 29.5981 459.071 30.559 462.216C31.5203 465.361 33.1012 467.06 34.6556 468.41C36.21 469.76 37.7375 470.761 39.7265 471.623C41.7155 472.486 44.1661 473.21 47.4004 473.689C50.6348 474.168 54.653 474.402 58.2137 474.489C61.7745 474.577 64.8776 474.519 82.3845 474.46C99.8915 474.4 131.801 474.35 148.88 474.929C165.96 475.508 168.208 476.717 170.102 478.123C171.996 479.528 173.537 481.129 174.511 483.014C175.485 484.898 175.895 487.066 176.158 488.911C176.422 490.757 176.538 492.28 176.158 494.037C175.777 495.794 174.899 497.786 173.465 499.6C172.031 501.415 170.041 503.052 168.52 504.163C166.999 505.275 165.947 505.86 164.438 506.384C162.93 506.908 160.965 507.37 157.816 507.572C154.667 507.775 150.335 507.716 147.612 507.687C144.889 507.657 143.777 507.657 136.665 507.657C129.553 507.657 116.441 507.657 108.977 508.546C101.512 509.435 99.6969 511.213 98.2037 513.332C96.7105 515.452 95.5401 517.912 94.7499 520.079C93.9597 522.247 93.5499 524.122 93.3158 525.821C93.0816 527.52 93.0236 529.044 92.9649 530.567C92.9054 532.09 92.8481 533.614 92.9277 534.854C93.0102 536.095 93.2341 537.052 94.1546 538.25C95.0751 539.449 96.691 540.889 98.6897 542.108C100.688 543.328 103.069 544.328 105.455 545.091C107.841 545.854 110.231 546.381 113.241 546.644C116.25 546.907 119.881 546.907 123.394 546.907C126.907 546.907 130.303 546.907 132.967 546.937C135.631 546.967 137.563 547.025 146.601 547.011C155.638 546.996 171.779 546.912 188.126 546.777C204.474 546.642 221.024 546.459 237.576 546.275L286.934 546.421C307.576 546.533 328.219 546.645 339.284 546.275C350.35 545.905 351.839 545.053 353.288 543.93C354.736 542.806 356.143 541.411 357.316 539.628C358.488 537.845 359.426 535.673 360.071 533.209C360.716 530.745 361.069 527.987 361.245 525.993C361.422 524 361.422 522.769 360.859 521.099C360.296 519.429 359.168 517.32 356.998 515.068C354.828 512.816 351.614 510.423 349.001 508.968C346.388 507.513 344.374 506.997 340.616 506.885C336.857 506.772 331.353 507.066 323.989 507.147C316.626 507.229 307.403 507.103 302.188 506.831C296.972 506.562 295.764 506.152 294.152 505.018C292.539 503.884 290.523 502.027 289.163 499.926C287.803 497.826 287.1 495.482 286.749 493.578C286.397 491.673 286.397 490.209 286.719 488.714C287.041 487.219 287.685 485.696 288.417 484.29C289.148 482.883 289.968 481.594 291.14 480.071C292.311 478.547 293.833 476.79 295.173 475.628C296.514 474.466 297.671 473.901 298.953 473.471C300.234 473.042 301.64 472.749 310.673 472.75C319.707 472.75 336.367 473.043 347.574 473.159C358.78 473.275 364.533 473.211 369.224 473.122C373.915 473.033 377.546 472.916 380.473 472.857C383.401 472.797 385.626 472.797 387.353 472.916C389.081 473.034 390.31 473.268 392.989 472.519C395.667 471.77 399.796 470.039 402.562 467.534C405.329 465.028 406.734 461.747 407.437 458.847C408.139 455.948 408.139 453.428 407.762 451.323C407.384 449.218 406.628 447.527 405.372 445.744C404.116 443.96 402.36 442.085 400.424 440.583C398.489 439.081 396.375 437.951 394.117 436.918C391.859 435.884 389.459 434.947 387.438 434.419C385.418 433.892 383.779 433.775 378.949 433.913C374.119 434.051 366.097 434.445 358.077 434.838C327.808 435.476 297.541 436.113 281.789 436.403C266.037 436.692 264.803 436.634 262.849 435.811C260.895 434.989 258.22 433.401 256.561 432.027C254.903 430.652 254.263 429.49 253.591 428.06C252.92 426.629 252.217 424.93 252.099 422.732C251.982 420.535 252.45 417.84 252.804 416.182C253.157 414.525 253.396 413.905 254.711 411.888C256.025 409.871 258.413 406.458 261.775 404.312C265.137 402.166 269.47 401.287 272.895 400.877C276.321 400.467 278.838 400.526 282.417 400.526C285.995 400.526 290.633 400.466 300.811 400.303C310.989 400.138 326.706 399.863 336.048 398.616C345.39 397.368 348.358 395.147 350.339 392.425C352.321 389.704 353.316 386.482 353.756 383.67C354.195 380.858 354.078 378.456 353.677 376.359C353.277 374.263 352.592 372.473 350.523 370.727C348.453 368.982 344.999 367.283 342.902 366.496C340.805 365.709 340.067 365.836 339.697 365.9C339.326 365.967 339.327 365.959 338.59 365.959L338.593 365.968Z" fill="#4484F2" stroke="#4484F2" stroke-width="0.264583"/>
<defs>
<clipPath id="clip0">
<rect width="601" height="601" fill="white" transform="translate(213 33)"/>
</clipPath>
</defs>
</svg>
